<svg width="640" height="400" viewBox="0 0 640 400" fill="none" xmlns="http://www.w3.org/2000/svg">
  <rect width="640" height="400" rx="28" fill="#FFF4E6"/>
  <circle cx="85" cy="70" r="14" fill="#FFD43B"/>
  <circle cx="560" cy="84" r="18" fill="#FF922B"/>
  <circle cx="520" cy="52" r="11" fill="#FA5252"/>
  <ellipse cx="320" cy="342" rx="170" ry="28" fill="#E9D8C3"/>
  <ellipse cx="320" cy="230" rx="120" ry="95" fill="#B08968"/>
  <ellipse cx="228" cy="178" rx="34" ry="50" fill="#A17B5E"/>
  <ellipse cx="412" cy="178" rx="34" ry="50" fill="#A17B5E"/>
  <circle cx="320" cy="176" r="88" fill="#B08968"/>
  <ellipse cx="320" cy="206" rx="60" ry="48" fill="#EDE0D4"/>
  <circle cx="286" cy="168" r="9" fill="#2B2D42"/>
  <circle cx="354" cy="168" r="9" fill="#2B2D42"/>
  <ellipse cx="320" cy="198" rx="14" ry="10" fill="#2B2D42"/>
  <path d="M296 218C302 228 313 234 320 234C327 234 338 228 344 218" stroke="#2B2D42" stroke-width="6" stroke-linecap="round"/>
  <path d="M320 76L370 138H270L320 76Z" fill="#FF6B6B"/>
  <circle cx="320" cy="70" r="10" fill="#FFD43B"/>
  <rect x="266" y="246" width="108" height="82" rx="34" fill="#B08968"/>
  <rect x="240" y="304" width="34" height="54" rx="14" fill="#A17B5E"/>
  <rect x="366" y="304" width="34" height="54" rx="14" fill="#A17B5E"/>
  <path d="M372 262C404 250 438 268 446 300" stroke="#A17B5E" stroke-width="14" stroke-linecap="round"/>
  <rect x="74" y="252" width="116" height="88" rx="14" fill="#FF922B"/>
  <rect x="122" y="252" width="20" height="88" fill="#FFF"/>
  <rect x="74" y="286" width="116" height="20" fill="#FFF"/>
  <path d="M132 252V220" stroke="#FF5D8F" stroke-width="10" stroke-linecap="round"/>
  <path d="M132 220C142 208 158 210 166 220C158 230 142 232 132 220Z" fill="#FF5D8F"/>
  <path d="M132 220C122 208 106 210 98 220C106 230 122 232 132 220Z" fill="#FF5D8F"/>
  <text x="320" y="372" text-anchor="middle" fill="#9D0208" font-family="Arial, sans-serif" font-size="30" font-weight="700">Hermann is party ready!</text>
</svg>
